<svg xmlns="http://www.w3.org/2000/svg" width="1200" height="760" viewBox="0 0 1200 760" role="img" aria-labelledby="title desc">
  <title id="title">Doppel screenshot placeholder</title>
  <desc id="desc">A placeholder mock of the Doppel macOS window.</desc>
  <rect width="1200" height="760" fill="#f4f5f7"/>
  <rect x="80" y="70" width="1040" height="620" rx="18" fill="#ffffff" stroke="#d8dce2"/>
  <rect x="80" y="70" width="260" height="620" rx="18" fill="#eef1f5"/>
  <rect x="340" y="70" width="420" height="620" fill="#ffffff"/>
  <rect x="760" y="70" width="360" height="620" rx="18" fill="#fbfbfc"/>
  <text x="120" y="130" font-family="-apple-system, BlinkMacSystemFont, Segoe UI, sans-serif" font-size="28" font-weight="700" fill="#1f2328">Doppel</text>
  <text x="120" y="166" font-family="-apple-system, BlinkMacSystemFont, Segoe UI, sans-serif" font-size="16" fill="#59606a">Exact duplicate finder</text>
  <rect x="120" y="220" width="180" height="18" rx="9" fill="#cfd6df"/>
  <rect x="120" y="260" width="150" height="18" rx="9" fill="#cfd6df"/>
  <rect x="380" y="120" width="310" height="26" rx="13" fill="#dfe7f5"/>
  <rect x="380" y="180" width="320" height="72" rx="10" fill="#f7f8fa" stroke="#d8dce2"/>
  <rect x="380" y="280" width="320" height="72" rx="10" fill="#f7f8fa" stroke="#d8dce2"/>
  <rect x="380" y="380" width="320" height="72" rx="10" fill="#f7f8fa" stroke="#d8dce2"/>
  <rect x="820" y="130" width="240" height="180" rx="12" fill="#eef1f5" stroke="#d8dce2"/>
  <rect x="820" y="350" width="220" height="18" rx="9" fill="#cfd6df"/>
  <rect x="820" y="390" width="260" height="18" rx="9" fill="#cfd6df"/>
  <rect x="820" y="430" width="190" height="18" rx="9" fill="#cfd6df"/>
  <text x="430" y="640" font-family="-apple-system, BlinkMacSystemFont, Segoe UI, sans-serif" font-size="20" fill="#59606a">Screenshot coming with the first release</text>
</svg>
